<mxfile host="app.diagrams.net" modified="2024-05-30T18:47:22.686Z" agent="Mozilla/5.0 (Windows NT 10.0; Win64; x64) AppleWebKit/537.36 (KHTML, like Gecko) Chrome/124.0.0.0 Safari/537.36" etag="zBdaSmW5sOD0B3Cd6Fh0" version="24.4.10" type="device">
  <diagram name="Страница — 1" id="NEs2RKFX-ALVfKXx9r6U">
    <mxGraphModel dx="522" dy="588" grid="1" gridSize="10" guides="1" tooltips="1" connect="1" arrows="1" fold="1" page="1" pageScale="1" pageWidth="827" pageHeight="1169" math="0" shadow="0">
      <root>
        <mxCell id="0" />
        <mxCell id="1" parent="0" />
        <mxCell id="Zm6vWRogxW96yN8QFr-W-1" style="edgeStyle=none;curved=1;rounded=0;orthogonalLoop=1;jettySize=auto;html=1;fontSize=12;startSize=8;endSize=8;" edge="1" parent="1" source="Zm6vWRogxW96yN8QFr-W-2" target="Zm6vWRogxW96yN8QFr-W-4">
          <mxGeometry relative="1" as="geometry" />
        </mxCell>
        <mxCell id="Zm6vWRogxW96yN8QFr-W-2" value="" style="ellipse;whiteSpace=wrap;html=1;aspect=fixed;" vertex="1" parent="1">
          <mxGeometry x="160" y="40" width="40" height="40" as="geometry" />
        </mxCell>
        <mxCell id="Zm6vWRogxW96yN8QFr-W-3" style="edgeStyle=none;curved=1;rounded=0;orthogonalLoop=1;jettySize=auto;html=1;fontSize=12;startSize=8;endSize=8;entryX=0.5;entryY=0;entryDx=0;entryDy=0;exitX=0.5;exitY=1;exitDx=0;exitDy=0;" edge="1" parent="1" source="Zm6vWRogxW96yN8QFr-W-4" target="Zm6vWRogxW96yN8QFr-W-6">
          <mxGeometry relative="1" as="geometry" />
        </mxCell>
        <mxCell id="Zm6vWRogxW96yN8QFr-W-4" value="Извлечение значений из DataFrame" style="rounded=0;whiteSpace=wrap;html=1;" vertex="1" parent="1">
          <mxGeometry x="83.75" y="100" width="192.5" height="40" as="geometry" />
        </mxCell>
        <mxCell id="Zm6vWRogxW96yN8QFr-W-5" style="edgeStyle=none;curved=1;rounded=0;orthogonalLoop=1;jettySize=auto;html=1;fontSize=12;startSize=8;endSize=8;" edge="1" parent="1" source="Zm6vWRogxW96yN8QFr-W-6" target="Zm6vWRogxW96yN8QFr-W-8">
          <mxGeometry relative="1" as="geometry" />
        </mxCell>
        <mxCell id="Zm6vWRogxW96yN8QFr-W-6" value="Вычисление разницы между значениями каждого наблюдения и средним значением параметра" style="rounded=0;whiteSpace=wrap;html=1;" vertex="1" parent="1">
          <mxGeometry x="83.75" y="160" width="192.5" height="60" as="geometry" />
        </mxCell>
        <mxCell id="Zm6vWRogxW96yN8QFr-W-14" style="edgeStyle=none;curved=1;rounded=0;orthogonalLoop=1;jettySize=auto;html=1;fontSize=12;startSize=8;endSize=8;" edge="1" parent="1" source="Zm6vWRogxW96yN8QFr-W-8" target="Zm6vWRogxW96yN8QFr-W-13">
          <mxGeometry relative="1" as="geometry" />
        </mxCell>
        <mxCell id="Zm6vWRogxW96yN8QFr-W-8" value="Возведение каждого отклонения в квадрат" style="rounded=0;whiteSpace=wrap;html=1;" vertex="1" parent="1">
          <mxGeometry x="83.13" y="240" width="193.12" height="40" as="geometry" />
        </mxCell>
        <mxCell id="Zm6vWRogxW96yN8QFr-W-9" style="edgeStyle=none;curved=1;rounded=0;orthogonalLoop=1;jettySize=auto;html=1;entryX=0.5;entryY=0;entryDx=0;entryDy=0;fontSize=12;startSize=8;endSize=8;" edge="1" parent="1" target="Zm6vWRogxW96yN8QFr-W-11">
          <mxGeometry relative="1" as="geometry">
            <mxPoint x="179.16666666666663" y="490" as="sourcePoint" />
          </mxGeometry>
        </mxCell>
        <mxCell id="Zm6vWRogxW96yN8QFr-W-11" value="" style="ellipse;whiteSpace=wrap;html=1;aspect=fixed;" vertex="1" parent="1">
          <mxGeometry x="160" y="510" width="40" height="40" as="geometry" />
        </mxCell>
        <mxCell id="Zm6vWRogxW96yN8QFr-W-16" style="edgeStyle=none;curved=1;rounded=0;orthogonalLoop=1;jettySize=auto;html=1;fontSize=12;startSize=8;endSize=8;" edge="1" parent="1" source="Zm6vWRogxW96yN8QFr-W-13" target="Zm6vWRogxW96yN8QFr-W-15">
          <mxGeometry relative="1" as="geometry" />
        </mxCell>
        <mxCell id="Zm6vWRogxW96yN8QFr-W-13" value="Деление суммы квадратов отклонений на количество наблюдений" style="rounded=0;whiteSpace=wrap;html=1;" vertex="1" parent="1">
          <mxGeometry x="83.44" y="300" width="193.12" height="50" as="geometry" />
        </mxCell>
        <mxCell id="Zm6vWRogxW96yN8QFr-W-18" style="edgeStyle=none;curved=1;rounded=0;orthogonalLoop=1;jettySize=auto;html=1;fontSize=12;startSize=8;endSize=8;" edge="1" parent="1" source="Zm6vWRogxW96yN8QFr-W-15" target="Zm6vWRogxW96yN8QFr-W-17">
          <mxGeometry relative="1" as="geometry" />
        </mxCell>
        <mxCell id="Zm6vWRogxW96yN8QFr-W-15" value="Извлечение квадратного корня из полученного значения" style="rounded=0;whiteSpace=wrap;html=1;" vertex="1" parent="1">
          <mxGeometry x="83.75" y="370" width="193.12" height="50" as="geometry" />
        </mxCell>
        <mxCell id="Zm6vWRogxW96yN8QFr-W-17" value="Получение результирующего значения за заданный период" style="rounded=0;whiteSpace=wrap;html=1;" vertex="1" parent="1">
          <mxGeometry x="83.75" y="440" width="193.12" height="50" as="geometry" />
        </mxCell>
      </root>
    </mxGraphModel>
  </diagram>
</mxfile>
